<?xml version="1.0" standalone="no"?>
<!DOCTYPE svg PUBLIC "-//W3C//DTD SVG 20010904//EN"
 "http://www.w3.org/TR/2001/REC-SVG-20010904/DTD/svg10.dtd">
<svg version="1.0" xmlns="http://www.w3.org/2000/svg"
 width="400.000000pt" height="400.000000pt" viewBox="0 0 400.000000 400.000000"
 preserveAspectRatio="xMidYMid meet">
<metadata>
Created by potrace 1.16, written by Peter Selinger 2001-2019
</metadata>
<g transform="translate(0.000000,400.000000) scale(0.100000,-0.100000)"
fill="#000000" stroke="none">
<path d="M1301 3719 c-11 -12 -24 -18 -29 -15 -6 3 -13 -1 -16 -10 -3 -8 -10
-12 -16 -9 -5 3 -10 -1 -10 -9 0 -14 -7 -18 -26 -15 -12 2 -64 -56 -60 -67 2
-7 -4 -21 -14 -32 -12 -13 -15 -23 -8 -30 6 -6 6 -12 -1 -16 -17 -11 -13 -26
7 -27 13 0 14 -2 2 -6 -8 -3 -23 -12 -32 -20 -9 -8 -21 -12 -27 -9 -5 4 -16
-3 -25 -15 -8 -12 -19 -18 -25 -14 -6 3 -11 1 -11 -4 0 -6 -7 -11 -15 -11 -8
0 -15 -4 -15 -10 0 -5 -4 -10 -8 -10 -5 0 -1 38 7 85 19 109 8 126 -43 72 -19
-20 -40 -37 -46 -37 -6 0 -15 -11 -20 -25 -5 -14 -14 -25 -20 -25 -5 0 -10 -5
-10 -12 0 -6 -7 -19 -16 -29 -23 -26 -27 -120 -5 -136 14 -11 14 -12 1 -13
-20 0 -126 -108 -134 -135 -3 -11 -4 22 -1 72 2 57 0 95 -7 99 -5 3 -8 15 -5
25 3 11 3 19 0 19 -11 0 -57 -42 -69 -63 -26 -46 -44 -89 -39 -97 3 -5 0 -10
-5 -12 -6 -2 -12 -16 -14 -31 -1 -15 -6 -30 -9 -34 -11 -10 -8 -71 3 -78 6 -4
8 -11 4 -16 -3 -6 4 -13 16 -16 12 -3 18 -9 13 -12 -18 -12 -72 -99 -66 -105
3 -3 -1 -14 -9 -23 -9 -10 -18 -25 -22 -33 -3 -8 -3 0 0 18 4 21 2 32 -6 32
-7 0 -10 7 -7 15 4 8 2 17 -4 21 -6 3 -8 12 -5 20 3 8 1 14 -5 14 -6 0 -8 4
-5 8 7 11 -19 85 -31 89 -12 4 -52 -68 -57 -103 -2 -16 -7 -37 -11 -46 -4 -9
-4 -21 -1 -27 4 -5 2 -12 -4 -16 -14 -8 -13 -89 2 -136 9 -33 15 -39 40 -39
26 0 39 -14 19 -22 -5 -1 -22 -36 -38 -76 l-29 -73 -32 62 c-18 34 -32 68 -32
75 0 8 -7 14 -16 14 -10 0 -14 6 -10 15 4 11 -2 15 -20 15 -21 0 -25 -5 -25
-32 0 -18 -3 -70 -5 -116 -4 -53 -2 -88 5 -96 6 -8 9 -20 5 -29 -3 -8 0 -18 5
-22 6 -3 9 -10 7 -14 -3 -4 10 -25 29 -45 38 -41 53 -76 34 -76 -8 0 -9 -10
-5 -31 4 -21 1 -35 -9 -46 -8 -8 -15 -10 -15 -4 0 6 -6 11 -14 11 -8 0 -16 10
-18 23 -2 12 -9 21 -15 20 -7 -2 -18 7 -24 20 -19 36 -51 67 -71 67 -15 0 -18
-8 -18 -48 0 -27 3 -52 7 -56 4 -3 8 -25 9 -49 1 -23 8 -55 15 -72 7 -16 11
-34 11 -38 -3 -13 28 -67 39 -67 6 0 7 -5 4 -10 -7 -12 61 -43 75 -35 6 4 10
-20 10 -60 0 -37 5 -75 10 -85 19 -36 -6 -29 -40 11 -19 21 -37 39 -41 39 -4
0 -23 16 -44 35 -21 19 -42 32 -46 30 -4 -3 -9 0 -11 7 -2 6 -10 -4 -18 -22
-11 -26 -11 -35 -2 -38 7 -2 9 -8 6 -13 -3 -6 0 -16 6 -24 7 -8 9 -15 5 -15
-4 0 -2 -6 4 -13 6 -8 8 -17 4 -20 -3 -4 -1 -7 6 -7 6 0 11 -6 9 -12 -3 -19
22 -88 33 -88 5 0 9 -4 9 -10 0 -33 96 -97 127 -86 7 3 13 -1 13 -9 0 -8 5
-15 11 -15 6 0 9 -7 5 -15 -3 -8 1 -36 9 -62 8 -27 15 -49 15 -51 0 -2 -13 6
-30 18 -16 12 -30 19 -30 15 0 -3 -10 4 -23 16 -19 18 -119 69 -136 69 -3 0
-7 -11 -7 -25 -1 -14 2 -25 6 -25 8 0 33 -54 37 -80 1 -8 9 -20 17 -26 9 -6
13 -13 11 -16 -3 -3 6 -17 20 -32 14 -15 25 -30 25 -35 0 -19 87 -81 115 -81
8 0 15 -4 15 -10 0 -5 7 -10 15 -10 8 0 15 5 15 10 0 6 10 10 22 10 12 0 19
-3 15 -6 -3 -4 7 -33 24 -66 l30 -59 -23 3 c-13 2 -26 7 -29 11 -3 4 -17 9
-30 10 -13 0 -27 5 -30 10 -3 4 -17 9 -30 11 -14 1 -30 6 -37 10 -7 4 -16 5
-21 1 -5 -3 -12 -1 -16 5 -3 5 -13 10 -21 10 -19 0 -18 -46 1 -54 8 -3 15 -11
15 -18 0 -7 9 -19 21 -26 11 -7 18 -19 16 -26 -5 -13 83 -96 101 -96 6 0 12
-6 15 -13 3 -8 32 -24 66 -37 48 -17 66 -20 89 -12 32 11 62 0 62 -23 0 -8 7
-15 15 -15 8 0 15 -6 15 -14 0 -8 3 -21 6 -29 4 -12 -5 -14 -53 -9 -161 14
-193 14 -193 0 0 -18 79 -93 108 -102 12 -4 20 -12 17 -17 -4 -5 0 -9 9 -9 8
0 16 -4 18 -9 5 -13 101 -55 121 -53 9 1 17 -2 17 -6 0 -14 102 -4 121 11 15
13 19 14 29 2 7 -8 15 -14 18 -13 21 2 32 -4 32 -17 0 -8 6 -15 14 -15 8 0 16
-7 20 -15 3 -8 12 -15 21 -15 8 0 15 -4 15 -10 0 -5 7 -10 15 -10 8 0 15 -4
15 -9 0 -5 8 -11 18 -15 9 -3 29 -14 43 -23 73 -50 97 -63 129 -69 19 -4 38
-12 42 -18 4 -6 15 -11 25 -11 10 -1 57 -13 104 -28 111 -35 213 -54 314 -59
l80 -3 3 27 c3 27 3 27 -47 21 -38 -4 -51 -2 -51 7 0 9 -12 11 -45 7 -30 -5
-45 -3 -45 4 0 7 -11 9 -30 6 -18 -4 -30 -2 -30 4 0 6 -9 8 -19 4 -11 -3 -22
-1 -26 5 -5 8 -11 8 -21 -1 -8 -6 -14 -7 -14 -2 0 5 -22 15 -50 22 -27 7 -52
17 -56 22 -3 5 -12 9 -21 9 -8 0 -52 18 -96 39 -45 22 -86 39 -91 39 -5 0 -12
4 -15 9 -12 17 -81 65 -81 57 0 -5 -5 -1 -11 9 -6 9 -14 15 -18 12 -5 -2 -14
2 -21 10 -7 8 -18 15 -24 15 -6 0 -17 9 -24 20 -7 11 -19 20 -27 20 -8 0 -15
7 -15 15 0 8 4 15 9 15 4 0 8 36 8 80 0 44 -4 80 -9 80 -5 0 -6 4 -3 10 3 5 0
20 -7 32 -7 13 -13 28 -14 33 0 6 -7 26 -16 45 -8 19 -21 52 -29 73 -21 60
-47 47 -75 -38 -18 -55 -22 -82 -17 -129 l6 -58 -22 18 c-11 10 -21 26 -21 36
0 10 -7 18 -15 18 -8 0 -15 9 -15 20 0 11 -7 23 -15 26 -12 5 -10 11 11 29 15
13 23 28 20 34 -4 6 -2 11 3 11 7 0 11 26 11 65 0 40 -4 65 -11 65 -7 0 -8 11
-4 30 4 20 3 30 -5 30 -8 0 -9 10 -5 30 4 19 3 30 -4 30 -7 0 -9 10 -5 24 3
13 1 27 -5 30 -5 4 -8 13 -4 21 10 28 -33 16 -48 -12 -8 -16 -20 -34 -27 -41
-7 -8 -9 -18 -6 -23 3 -6 -1 -16 -9 -22 -18 -15 -38 -73 -31 -91 3 -8 1 -16
-4 -20 -9 -5 -38 48 -53 98 -7 24 -4 33 15 51 14 13 30 40 36 61 13 43 27 314
16 314 -18 0 -55 -34 -60 -56 -4 -13 -13 -24 -21 -24 -8 0 -15 -7 -15 -15 0
-9 -6 -18 -14 -21 -8 -3 -12 -12 -9 -20 3 -8 0 -14 -6 -14 -6 0 -11 -9 -11
-21 0 -41 -24 -12 -42 52 -10 35 -18 67 -18 71 0 3 14 9 31 13 17 4 33 14 37
23 3 10 12 23 19 30 7 8 11 17 8 22 -3 5 0 10 6 12 6 2 12 16 12 31 0 15 4 27
9 27 6 0 8 7 5 15 -4 8 -2 17 4 21 6 3 8 12 5 19 -2 7 1 36 9 65 20 74 8 98
-31 62 -10 -10 -27 -21 -37 -25 -9 -3 -21 -17 -26 -31 -6 -13 -23 -28 -40 -34
-18 -7 -31 -18 -32 -29 -2 -34 -17 42 -18 93 -1 49 0 52 25 52 26 0 79 31 75
45 -1 4 8 17 18 29 11 11 18 25 15 29 -2 4 4 16 15 26 11 10 22 32 25 49 3 17
13 44 21 60 17 33 20 74 5 74 -5 0 -10 -5 -10 -11 0 -6 -6 -9 -14 -6 -8 3 -31
-5 -50 -18 -20 -14 -36 -21 -36 -17 0 4 -5 -1 -11 -11 -6 -9 -14 -15 -20 -12
-5 4 -13 -5 -18 -18 -11 -29 -31 -45 -31 -25 0 7 5 47 12 90 l11 76 37 -3 c29
-3 44 2 73 26 21 17 37 35 37 41 0 11 60 91 72 96 5 2 8 8 8 14 0 5 7 16 15
24 8 9 15 22 15 29 0 17 -43 32 -48 16 -2 -6 -7 -9 -12 -6 -13 8 -122 -34
-136 -52 -20 -27 -17 -12 20 82 18 48 36 82 40 76 10 -15 30 -14 74 6 20 9 40
15 45 15 4 -1 7 4 7 12 0 8 10 18 23 21 25 8 67 44 67 58 0 5 14 22 30 37 17
15 30 32 30 37 0 12 -152 8 -177 -5 -12 -7 -25 -12 -28 -12 -8 0 36 74 47 78
4 2 8 10 8 18 0 8 5 14 10 14 6 0 10 6 10 14 0 10 12 12 50 8 43 -4 61 1 127
33 43 21 80 41 83 44 3 4 18 15 33 24 23 15 26 21 16 33 -7 8 -18 13 -25 10
-7 -3 -16 -1 -19 4 -9 15 -145 13 -145 -2 0 -6 -3 -9 -6 -5 -4 3 26 37 65 75
57 56 73 66 82 56 18 -22 104 -17 207 13 70 20 92 30 87 40 -3 8 -5 19 -5 23
0 5 -9 7 -20 5 -11 -2 -20 0 -20 4 0 8 -72 33 -87 30 -19 -3 -33 2 -33 12 0 5
5 7 10 4 6 -3 10 -1 10 4 0 6 7 11 15 11 8 0 15 3 15 8 0 4 8 12 18 17 10 6
34 18 54 29 l35 18 28 -26 c27 -25 31 -26 152 -25 118 2 124 3 121 22 -2 11
-12 25 -23 31 -11 6 -25 18 -32 26 -7 8 -13 12 -13 8 0 -5 -9 1 -20 12 -11 11
-32 20 -47 20 -31 0 -27 8 8 14 13 2 25 5 27 7 1 1 6 2 11 3 5 0 12 4 16 8 4
4 13 4 21 1 8 -3 14 0 14 7 0 10 3 10 15 0 18 -15 135 -22 135 -8 0 5 5 6 10
3 6 -3 15 -3 22 1 7 4 22 9 33 10 12 1 39 10 61 20 21 9 46 17 54 18 8 1 16 9
18 20 3 11 0 16 -7 12 -6 -4 -11 -2 -11 4 0 7 -7 10 -15 7 -8 -4 -17 -2 -21 4
-3 6 -12 8 -19 5 -7 -2 -16 -2 -20 2 -4 4 -21 8 -38 9 -125 9 -200 -8 -210
-47 -2 -10 -30 -25 -65 -36 -34 -11 -57 -15 -52 -9 8 10 60 157 60 170 0 14
-42 2 -59 -16z"/>
<path d="M2620 3731 c0 -7 5 -22 12 -34 7 -12 13 -30 15 -40 2 -10 12 -36 23
-57 11 -22 19 -40 16 -40 -2 0 -22 7 -45 15 -23 8 -46 14 -51 12 -5 -1 -21 13
-37 31 -29 34 -63 45 -143 43 -19 0 -50 -1 -67 -1 -18 0 -33 -4 -33 -10 0 -5
-8 -9 -17 -8 -37 3 -52 -3 -55 -19 -2 -14 11 -24 52 -40 30 -13 60 -21 67 -19
6 3 13 0 15 -5 2 -5 17 -12 33 -14 17 -2 32 -4 35 -6 3 -1 30 -2 60 -3 38 -1
59 3 67 14 10 12 12 12 13 1 0 -8 7 -11 20 -8 11 3 20 1 20 -5 0 -5 4 -7 9 -4
12 8 41 -3 41 -15 0 -5 -7 -9 -15 -9 -8 0 -26 -12 -42 -27 -15 -16 -36 -33
-47 -38 -12 -6 -22 -20 -24 -32 -3 -21 -1 -21 127 -20 121 2 131 3 149 25 18
20 23 21 48 10 16 -7 35 -18 42 -25 7 -7 20 -13 28 -13 8 0 14 -5 14 -11 0 -5
5 -7 10 -4 6 3 13 -1 16 -9 3 -9 10 -14 14 -11 5 3 11 1 15 -5 3 -5 0 -10 -7
-11 -53 -2 -82 -10 -119 -30 -23 -13 -43 -28 -43 -34 -2 -16 132 -56 207 -62
54 -5 71 -2 86 11 17 15 20 13 57 -34 21 -27 44 -49 50 -50 6 0 18 -8 27 -17
15 -17 11 -18 -67 -18 -94 0 -145 -17 -121 -41 7 -8 17 -14 21 -14 3 0 41 -21
83 -47 70 -43 81 -47 143 -47 48 -1 68 -5 68 -13 0 -7 5 -13 10 -13 6 0 10 -7
10 -15 0 -8 5 -15 11 -15 5 0 7 -4 4 -10 -3 -5 2 -10 12 -10 14 0 15 -2 4 -9
-11 -7 -10 -10 3 -18 16 -9 16 -11 2 -22 -12 -11 -16 -11 -16 -1 0 7 -8 10
-20 7 -11 -3 -20 -1 -20 3 0 8 -140 9 -140 1 0 -11 123 -140 130 -136 5 3 19
-5 32 -18 31 -31 105 -54 120 -39 9 9 20 -8 44 -71 18 -45 31 -84 29 -86 -2
-2 -11 4 -20 13 -13 13 -51 27 -110 41 -5 1 -18 6 -28 10 -23 10 -50 -15 -41
-38 3 -9 10 -17 15 -17 5 0 9 -7 9 -15 0 -8 5 -15 11 -15 5 0 8 -4 4 -9 -3 -5
4 -16 15 -24 11 -7 17 -16 14 -20 -3 -3 4 -10 15 -17 12 -6 19 -15 16 -20 -3
-4 13 -24 36 -44 35 -30 48 -34 80 -31 38 4 38 3 32 -26 -3 -19 -1 -29 6 -29
8 0 10 -8 6 -21 -4 -12 -1 -32 6 -45 8 -16 9 -28 3 -34 -7 -7 -15 -2 -24 15
-8 14 -20 23 -27 21 -7 -3 -13 1 -13 10 0 8 -4 13 -10 9 -5 -3 -19 4 -30 15
-11 11 -25 18 -30 15 -6 -4 -10 -1 -10 5 0 6 -4 9 -9 5 -5 -3 -13 0 -17 6 -9
16 -34 -30 -26 -50 3 -9 12 -24 21 -35 9 -10 15 -20 14 -22 -9 -13 0 -36 22
-60 13 -14 23 -30 20 -34 -2 -4 4 -16 13 -26 10 -10 21 -27 25 -37 4 -10 25
-26 46 -34 35 -14 41 -21 46 -55 5 -25 3 -44 -4 -51 -6 -6 -11 -22 -12 -36 l0
-26 -10 23 c-5 13 -13 21 -18 18 -9 -6 -29 14 -46 46 -5 12 -12 19 -15 18 -3
-2 -18 8 -33 23 -24 22 -32 24 -48 14 -20 -12 -25 -27 -10 -27 5 0 7 -9 4 -20
-3 -12 0 -20 7 -20 7 0 10 -7 6 -16 -3 -9 -3 -21 1 -27 4 -6 8 -23 10 -38 4
-39 43 -139 54 -139 5 0 9 -7 9 -15 0 -8 16 -21 36 -30 22 -9 33 -19 28 -26
-4 -7 -8 -26 -10 -43 -3 -40 -21 -86 -33 -86 -8 0 -25 49 -21 59 1 2 -5 8 -14
13 -9 5 -16 15 -16 22 0 8 -6 16 -14 19 -8 3 -20 18 -28 34 -7 15 -17 26 -22
24 -5 -1 -12 3 -16 9 -15 25 -27 0 -20 -39 4 -22 3 -46 -1 -53 -10 -16 -12
-122 -2 -132 4 -4 8 -24 9 -45 2 -46 29 -101 49 -101 28 0 27 -23 -6 -86 l-33
-65 -13 52 c-7 29 -18 58 -24 65 -6 7 -8 17 -5 23 4 5 -1 16 -9 24 -8 9 -15
20 -15 26 0 6 -4 11 -10 11 -5 0 -10 7 -10 15 0 25 -40 18 -42 -7 -3 -41 -5
-53 -13 -71 -4 -9 -5 -24 -2 -32 4 -8 1 -17 -4 -21 -6 -3 -8 -16 -5 -27 3 -12
0 -27 -6 -34 -6 -7 -9 -42 -6 -83 3 -62 7 -74 31 -94 22 -19 24 -25 12 -30 -8
-3 -15 -15 -15 -26 0 -11 -6 -20 -14 -20 -7 0 -17 -8 -20 -17 -3 -10 -13 -29
-21 -43 -14 -24 -15 -22 -15 40 0 37 -9 88 -20 120 -11 30 -19 63 -20 73 0 9
-8 17 -17 17 -14 0 -30 -31 -66 -120 -26 -67 -45 -125 -42 -130 3 -6 2 -10 -4
-10 -8 0 -8 -85 0 -110 1 -3 1 -8 0 -12 0 -5 3 -8 9 -8 5 0 10 -7 10 -15 0 -8
-9 -15 -20 -15 -11 0 -25 -9 -32 -20 -7 -11 -19 -20 -26 -20 -7 0 -10 -5 -7
-10 6 -9 -41 -35 -57 -32 -5 1 -8 -2 -8 -8 0 -5 -7 -10 -15 -10 -8 0 -24 -10
-35 -22 -12 -13 -29 -24 -38 -24 -22 -2 -92 -43 -92 -55 0 -5 -9 -9 -20 -9
-18 0 -37 -6 -107 -36 -17 -8 -36 -14 -42 -14 -6 0 -11 -4 -11 -9 0 -5 -9 -7
-20 -4 -12 3 -20 0 -20 -7 0 -10 -3 -10 -15 0 -12 10 -15 10 -15 0 0 -8 -8
-10 -25 -6 -14 4 -25 2 -25 -4 0 -5 -13 -7 -30 -3 -19 3 -30 1 -30 -6 0 -7
-15 -9 -45 -4 -33 4 -45 2 -45 -7 0 -10 -14 -11 -55 -7 l-55 6 0 -31 0 -30 88
7 c115 9 215 28 321 62 47 15 94 28 105 29 10 1 21 5 25 10 3 5 13 10 21 12
23 5 90 38 135 67 22 13 47 28 55 32 8 3 17 9 20 13 3 3 28 22 55 41 28 18 52
37 53 42 2 4 9 7 15 7 6 0 19 7 29 17 16 15 18 15 18 0 0 -10 5 -14 15 -11 8
4 15 2 15 -2 0 -5 23 -9 50 -9 28 0 50 4 50 8 0 5 7 7 15 3 8 -3 15 -2 15 2 0
4 20 13 43 20 24 8 58 26 75 41 16 16 37 31 46 34 9 4 16 11 16 17 0 5 6 10
13 10 17 0 67 52 67 69 0 13 -37 12 -192 -1 -64 -6 -74 6 -38 42 11 11 20 24
20 30 0 18 33 28 59 19 13 -6 38 -7 55 -3 32 6 99 42 104 56 2 4 9 8 14 8 6 0
33 24 60 52 69 75 78 87 78 98 0 6 7 13 15 16 19 8 20 54 1 54 -8 0 -17 -4
-21 -10 -3 -5 -12 -7 -20 -3 -8 3 -15 1 -15 -4 0 -5 -14 -10 -31 -10 -17 0
-34 -4 -37 -9 -4 -5 -18 -10 -32 -12 -13 -1 -27 -6 -30 -10 -3 -4 -15 -8 -28
-10 l-23 -3 30 59 c17 33 27 62 24 66 -4 3 3 6 14 6 12 0 23 -5 25 -12 3 -7
11 -9 24 -3 10 4 25 9 33 11 8 1 18 9 22 16 5 7 9 9 9 4 0 -6 16 5 35 24 19
19 35 37 35 41 0 5 11 20 25 35 14 15 23 29 20 32 -2 3 2 10 10 16 9 6 17 21
19 33 3 11 12 35 20 52 17 31 21 71 9 70 -5 0 -33 -13 -63 -29 -30 -16 -69
-36 -86 -44 -17 -9 -34 -22 -37 -31 -4 -8 -13 -15 -22 -15 -18 0 -18 -1 -5 36
5 16 14 48 20 70 9 38 14 42 49 48 41 6 95 42 86 57 -4 5 0 9 7 9 17 0 88 186
96 249 5 42 4 43 -19 36 -13 -4 -38 -22 -55 -41 -17 -19 -35 -34 -40 -34 -4 0
-26 -19 -47 -42 l-38 -43 5 40 c3 22 6 64 6 93 0 31 4 51 10 47 13 -8 83 23
76 34 -3 5 1 12 10 15 8 3 12 11 8 17 -3 6 -3 14 2 18 15 10 44 134 51 215 6
72 5 76 -14 76 -12 0 -24 -6 -27 -12 -20 -41 -45 -73 -55 -70 -6 1 -14 -6 -18
-15 -4 -10 -16 -28 -29 -41 l-22 -23 -6 28 c-19 95 -18 121 1 127 26 8 65 63
68 95 1 14 5 34 9 43 4 9 5 52 2 95 -2 43 -5 93 -5 111 0 28 -4 32 -26 32 -15
0 -24 -4 -20 -9 3 -6 -4 -15 -15 -21 -12 -6 -19 -18 -16 -25 2 -7 -2 -19 -10
-26 -21 -17 -44 -64 -44 -89 0 -11 -4 -20 -10 -20 -5 0 -10 13 -10 28 0 15 -9
45 -20 67 -11 22 -20 45 -20 52 0 7 -4 13 -10 13 -5 0 -10 5 -10 11 0 5 10 9
21 7 34 -5 52 58 44 147 -4 39 -8 80 -9 93 0 12 -4 22 -8 22 -4 0 -5 7 -2 15
7 18 -35 95 -53 95 -7 0 -13 -8 -13 -19 0 -10 -7 -35 -15 -55 -9 -20 -13 -41
-10 -46 3 -5 0 -12 -6 -15 -5 -4 -8 -13 -5 -21 3 -8 0 -14 -5 -14 -7 0 -9 -11
-6 -27 l5 -27 -19 25 c-10 13 -19 30 -19 37 0 6 -3 12 -8 12 -4 0 -16 20 -27
45 -11 25 -24 45 -29 45 -6 0 -2 6 7 13 26 18 31 77 13 140 -9 30 -16 64 -16
76 0 11 -14 36 -31 56 -17 19 -28 35 -24 35 4 0 -4 9 -18 20 -32 25 -40 25
-32 1 3 -11 1 -22 -4 -26 -7 -4 -9 -41 -7 -98 4 -74 2 -88 -7 -71 -23 41 -111
134 -126 134 -14 1 -14 2 0 13 22 16 18 110 -5 136 -9 10 -16 23 -16 29 0 7
-5 12 -10 12 -6 0 -15 11 -20 25 -5 14 -13 24 -18 23 -5 -2 -27 17 -50 42 -40
42 -42 43 -44 20 -5 -76 -4 -116 4 -121 13 -8 -2 -39 -18 -39 -8 0 -14 5 -14
11 0 5 -5 7 -11 4 -6 -4 -17 2 -25 14 -9 12 -19 19 -23 16 -16 -9 -51 32 -51
60 0 15 -7 42 -16 60 -16 35 -93 112 -107 107 -4 -1 -10 5 -13 13 -3 8 -10 13
-14 10 -5 -3 -15 2 -24 10 -20 20 -76 32 -76 16z"/>
<path d="M1930 3409 c0 -3 -35 -9 -77 -12 -164 -13 -410 -93 -560 -183 -170
-101 -303 -218 -411 -364 -31 -41 -59 -77 -62 -80 -3 -3 -14 -21 -24 -40 -11
-19 -23 -37 -26 -40 -8 -6 -61 -107 -60 -115 0 -3 -6 -13 -15 -22 -9 -8 -14
-22 -11 -29 3 -8 1 -14 -5 -14 -6 0 -7 -4 -4 -10 3 -5 2 -10 -4 -10 -6 0 -8
-7 -5 -15 4 -8 2 -15 -4 -15 -5 0 -9 -6 -9 -12 1 -7 -7 -39 -17 -71 -10 -32
-15 -65 -12 -73 3 -7 1 -14 -3 -14 -11 0 -28 -97 -36 -210 -15 -194 40 -484
127 -670 49 -106 94 -180 108 -180 5 0 1 26 -8 57 -44 165 -4 371 123 623 l45
90 -74 0 c-41 0 -77 3 -79 8 -3 4 3 25 13 47 16 38 22 42 102 68 167 54 328
145 458 258 52 45 61 49 108 49 28 0 53 -4 56 -8 3 -5 -26 -75 -65 -155 -38
-81 -69 -151 -69 -157 0 -5 49 -11 115 -12 l114 -3 -19 -42 -19 -42 -122 -3
-122 -3 -48 -108 c-27 -59 -62 -152 -79 -205 -28 -86 -31 -108 -28 -193 3 -86
6 -101 33 -145 24 -37 44 -56 90 -79 57 -29 63 -30 194 -30 130 1 141 2 242
37 270 93 524 254 740 468 192 191 285 322 358 506 142 354 31 622 -286 689
-169 36 -421 -4 -642 -101 -30 -14 -56 -22 -59 -19 -10 10 211 107 342 150
182 61 296 79 460 72 139 -5 216 -24 306 -73 44 -25 44 -24 -26 43 -146 141
-321 246 -523 313 -107 36 -271 70 -336 70 -25 0 -45 3 -45 8 0 4 -32 7 -70 7
-39 0 -70 -3 -70 -6z"/>
<path d="M3204 2714 c45 -150 4 -389 -103 -603 -208 -413 -681 -837 -1154
-1035 -228 -96 -402 -136 -586 -136 -132 0 -222 19 -318 66 -40 20 -76 34 -79
32 -12 -12 191 -178 287 -235 140 -82 193 -108 298 -143 245 -82 662 -83 901
-2 94 32 246 106 299 146 19 14 40 26 46 26 18 0 137 101 227 192 79 81 105
115 187 243 49 76 115 220 145 315 48 151 70 454 45 610 -6 36 -10 77 -10 91
1 31 -61 223 -94 289 -53 109 -105 191 -91 144z"/>
</g>
</svg>
